# xmcd
#
# Track frame offsets:
#	150
#	17178
#	32380
#	49228
#	66058
#	80656
#	97464
#	110742
#	127354
#	143699
#	163931
#	183261
#	199204
#	211134
#	228429
#	253536
#
# Disc length: 3392 seconds
#
# Revision: 1
# Processed by: cddbd v1.5.1PL0 Copyright (c) Steve Scherf et al.
# Submitted via: audiograbber 1.83.01
#
DISCID=ee0d3e10
DTITLE=Toby Keith - Sound Choice -Spotlight Series - Hits of Toby Keith Vol 1
DYEAR=2003
DGENRE=Karaoke
TTITLE0=How Do You Like Me Now?!
TTITLE1=He Ain't Worth Missing
TTITLE2=Getcha Some
TTITLE3=Me Too
TTITLE4=I Wanna Talk About Me
TTITLE5=Wish I Didn't Know Now
TTITLE6=I'm Just Talkin' About Tonight
TTITLE7=Courtesy of the Red, White and Blue (The Angry American)
TTITLE8=Should've Been a Cowboy
TTITLE9=Who's Your Daddy?
TTITLE10=We Were in Love
TTITLE11=My List
TTITLE12=You Ain't Much Fun
TTITLE13=You Shouldn't Kiss Me Like This
TTITLE14=A Little Less Talk and A Lot More Action
TTITLE15=Data Track
EXTD=
EXTT0=
EXTT1=
EXTT2=
EXTT3=
EXTT4=
EXTT5=
EXTT6=
EXTT7=
EXTT8=
EXTT9=
EXTT10=
EXTT11=
EXTT12=
EXTT13=
EXTT14=
EXTT15=
PLAYORDER=
